Coordinates
version=1
nRows=43
nColumns=12
inDegrees=yes

Units are S.I. units (second, meters, Newtons, ...)
Angles are in degrees

endheader
time	SC_y	SC_z	SC_x	AC_y	AC_z	AC_x	GH_y	GH_z	GH_yy	EL_x	PS_y
       0.0              -20.76         -2.924          84.48           69.1          4.254          11.04         -88.33        -0.5806          95.56          6.369          10.87
  0.007376              -20.77         -2.921          84.48           69.1          4.253          11.04         -88.33        -0.5731          95.56          6.384          10.88
   0.01475              -20.77         -2.919          84.47           69.1          4.251          11.03         -88.33        -0.5652          95.56            6.4          10.89
   0.02213              -20.77         -2.916          84.46           69.1          4.249          11.03         -88.33        -0.5567          95.57          6.416           10.9
    0.0295              -20.78         -2.913          84.45           69.1          4.247          11.02         -88.32        -0.5478          95.57          6.434           10.9
   0.03688              -20.78          -2.91          84.44           69.1          4.245          11.02         -88.32        -0.5382          95.57          6.453          10.91
   0.04425              -20.78         -2.907          84.43          69.09          4.243          11.01         -88.32         -0.528          95.57          6.473          10.92
   0.05163              -20.79         -2.904          84.42          69.09          4.241          11.01         -88.32         -0.517          95.58          6.495          10.93
   0.05901              -20.79           -2.9          84.41          69.09          4.239           11.0         -88.32        -0.5053          95.58          6.518          10.95
   0.06638               -20.8         -2.896           84.4          69.09          4.236          10.99         -88.32        -0.4927          95.58          6.543          10.96
   0.07376               -20.8         -2.892          84.39          69.09          4.233          10.99         -88.32        -0.4792          95.59           6.57          10.97
   0.08113              -20.81         -2.887          84.37          69.09           4.23          10.98         -88.31        -0.4647          95.59          6.599          10.99
   0.08851              -20.81         -2.882          84.36          69.09          4.227          10.97         -88.31        -0.4491           95.6           6.63           11.0
   0.09588              -20.82         -2.877          84.34          69.09          4.223          10.96         -88.31        -0.4322           95.6          6.663          11.02
    0.1033              -20.83         -2.871          84.32          69.08           4.22          10.95         -88.31        -0.4139          95.61          6.699          11.04
    0.1106              -20.84         -2.864          84.31          69.08          4.216          10.94         -88.31         -0.394          95.61          6.739          11.06
     0.118              -20.84         -2.857          84.29          69.08          4.211          10.93          -88.3        -0.3724          95.62          6.781          11.08
    0.1254              -20.85          -2.85          84.26          69.08          4.206          10.91          -88.3        -0.3489          95.62          6.828           11.1
    0.1328              -20.86         -2.842          84.24          69.08          4.201           10.9          -88.3        -0.3233          95.63          6.879          11.13
    0.1401              -20.87         -2.833          84.21          69.07          4.195          10.88         -88.29        -0.2952          95.64          6.934          11.16
    0.1475              -20.88         -2.823          84.18          69.07          4.189          10.87         -88.29        -0.2643          95.65          6.995          11.19
    0.1549               -20.9         -2.812          84.15          69.07          4.182          10.85         -88.29        -0.2304          95.66          7.063          11.22
    0.1623              -20.91           -2.8          84.12          69.06          4.174          10.83         -88.28        -0.1929          95.67          7.137          11.26
    0.1696              -20.93         -2.787          84.08          69.06          4.166           10.8         -88.28        -0.1513          95.68          7.219           11.3
     0.177              -20.95         -2.772          84.03          69.05          4.156          10.78         -88.27        -0.1051          95.69          7.311          11.35
    0.1844              -20.97         -2.756          83.99          69.05          4.145          10.75         -88.26       -0.05361          95.71          7.413           11.4
    0.1918              -20.99         -2.737          83.93          69.04          4.133          10.72         -88.26       0.004125          95.72          7.527          11.45
    0.1991              -21.01         -2.717          83.87          69.04           4.12          10.68         -88.25        0.06907          95.74          7.656          11.52
    0.2065              -21.04         -2.693           83.8          69.03          4.105          10.64         -88.24         0.1425          95.76          7.801          11.59
    0.2139              -21.07         -2.667          83.72          69.02          4.088          10.59         -88.23         0.2258          95.79          7.966          11.68
    0.2213              -21.11         -2.636          83.63          69.01          4.068          10.54         -88.22         0.3209          95.81          8.154          11.77
    0.2286              -21.15         -2.602          83.53           69.0          4.046          10.48         -88.21           0.43          95.85          8.371          11.88
     0.236               -21.2         -2.561          83.41          68.99           4.02          10.41         -88.19          0.556          95.88           8.62           12.0
    0.2434              -21.26         -2.515          83.27          68.98          3.989          10.33         -88.17         0.7025          95.92           8.91          12.15
    0.2508              -21.32          -2.46          83.11          68.96          3.954          10.23         -88.15         0.8738          95.97          9.249          12.32
    0.2581               -21.4         -2.396          82.92          68.94          3.912          10.12         -88.13          1.076          96.03          9.649          12.52
    0.2655              -21.49         -2.319          82.69          68.92          3.863          9.984          -88.1          1.316           96.1          10.12          12.76
    0.2729               -21.6         -2.228          82.42          68.89          3.804          9.824         -88.07          1.603          96.18          10.69          13.05
    0.2803              -21.74         -2.117          82.09          68.86          3.732           9.63         -88.02          1.951          96.28          11.38           13.4
    0.2877               -21.9         -1.981          81.69          68.82          3.644          9.392         -87.97          2.377           96.4          12.23          13.82
     0.295               -22.1         -1.814           81.2          68.77          3.536            9.1         -87.91          2.901          96.55          13.27          14.34
    0.3024              -22.35         -1.605          80.58          68.71          3.401          8.735         -87.83          3.556          96.73          14.56           15.0
    0.3098              -22.67         -1.342           79.8          68.63          3.231          8.275         -87.73           4.38          96.97          16.19          15.82
